<svg width="56" height="52" viewBox="0 0 56 52" fill="none" xmlns="http://www.w3.org/2000/svg">
<path d="M53.6667 0.666672H2.33333C0.933333 0.666672 0 1.6 0 3.00001V31C0 32.4 0.933333 33.3333 2.33333 33.3333H53.6667C55.0667 33.3333 56 32.4 56 31V3.00001C56 1.6 55.0667 0.666672 53.6667 0.666672ZM5.83333 21.6667C5.36667 21.6667 4.9 21.6667 4.66667 21.9V12.1C4.9 12.3333 5.36667 12.3333 5.83333 12.3333C9.1 12.3333 11.6667 9.76667 11.6667 6.5C11.6667 6.03334 11.6667 5.56667 11.4333 5.33334H44.3333C44.3333 5.56667 44.3333 6.03334 44.3333 6.5C44.3333 9.76667 46.9 12.3333 50.1667 12.3333C50.6333 12.3333 51.1 12.3333 51.3333 12.1V21.6667C51.1 21.6667 50.6333 21.4333 50.1667 21.4333C46.9 21.4333 44.3333 24 44.3333 27.2667C44.3333 27.7333 44.3333 28.2 44.5667 28.4333H11.4333C11.6667 28.4333 11.6667 27.9667 11.6667 27.5C11.6667 24.2333 9.1 21.6667 5.83333 21.6667ZM21 17C21 13.0333 24.0333 10 28 10C31.9667 10 35 13.0333 35 17C35 20.9667 31.9667 24 28 24C24.0333 24 21 20.9667 21 17ZM4.66667 40.3333V38H51.3333V40.3333C51.3333 41.7333 50.4 42.6667 49 42.6667H7C5.6 42.6667 4.66667 41.7333 4.66667 40.3333ZM10.2667 49.6667V47.3333H45.2667V49.6667C45.2667 51.0667 44.3333 52 42.9333 52H12.6C11.2 52 10.2667 51.0667 10.2667 49.6667Z" fill="#118C4F"/>
</svg>
